<svg width="64" height="57" viewBox="0 0 64 57" fill="none" xmlns="http://www.w3.org/2000/svg">
<path d="M62.6247 26.8409L56.7811 16.6899C56.906 16.4393 56.9998 16.1573 56.9998 15.844C56.9998 14.904 56.2186 14.1207 55.2811 14.0894L48.8123 2.87316C48.8748 2.6852 48.9373 2.49723 48.9373 2.30927C48.9373 1.30676 48.1248 0.523438 47.156 0.523438C46.5936 0.523438 46.1248 0.774095 45.781 1.18137H33.3437C33.0312 0.774212 32.5624 0.523555 31.9999 0.523555C31.4375 0.523555 30.9687 0.774212 30.6562 1.18149H18.2813C17.9375 0.774212 17.4689 0.523555 16.9063 0.523555C15.9376 0.523555 15.125 1.30676 15.125 2.30939C15.125 2.49735 15.1876 2.71666 15.2501 2.87328L8.71879 14.2462C8.09393 14.5281 7.65632 15.1235 7.65632 15.8441C7.65632 15.9067 7.68758 15.9694 7.68758 16.032L1.46882 26.8096C0.625096 26.9662 0 27.6869 0 28.5641C0 29.41 0.593713 30.1306 1.40629 30.3186L7.8438 41.4722C7.78127 41.6602 7.75 41.8168 7.75 42.0361C7.75 42.882 8.34371 43.6026 9.15629 43.7592L15.1876 54.2548C15.125 54.4428 15.0626 54.6621 15.0626 54.8814C15.0626 55.8839 15.8751 56.6672 16.8439 56.6672C17.4063 56.6672 17.8751 56.4166 18.1876 56.0406H30.6563C30.9687 56.4165 31.4688 56.6671 31.9999 56.6671C32.5311 56.6671 33.0312 56.4165 33.3437 56.0405H45.8436C46.1561 56.3851 46.6248 56.6044 47.1249 56.6044C48.1248 56.6044 48.9061 55.7899 48.9061 54.8186C48.9061 54.6306 48.875 54.474 48.8124 54.3174L54.8437 43.7591C55.6562 43.6025 56.25 42.8819 56.25 42.036C56.25 41.848 56.2187 41.6601 56.1562 41.4721L62.5624 30.3185C63.3749 30.1619 64 29.4412 64 28.564C63.9998 27.7181 63.4059 26.9975 62.6247 26.8409ZM16.3125 51.3723L11.2188 42.506H16.3125V51.3723ZM16.3125 41.566H11.2188C11.1876 41.4408 11.125 41.3155 11.0626 41.1901L16.3125 35.6447V41.566ZM16.3125 34.2661L10.4375 40.5008C10.2813 40.4381 10.125 40.3441 9.96875 40.3128L3.46894 29.034C3.53136 28.8773 3.53136 28.7206 3.53136 28.564C3.53136 28.4074 3.53136 28.2821 3.50009 28.1567L9.56264 17.6298C9.87519 17.5984 10.1876 17.5044 10.4689 17.3164L16.3126 23.3946V34.2661H16.3125ZM16.3125 22.2979L10.9688 16.7526C11.125 16.5019 11.2188 16.1887 11.2188 15.8441C11.2188 15.8127 11.1876 15.75 11.1876 15.7187L16.3125 13.8702V22.2979ZM16.3125 12.8675L11.2188 14.7161L16.3125 5.88094V12.8675ZM54.4061 17.4418L54.4999 17.5984L50.3748 37.1485L42.9374 29.2846L54.3748 17.4105L54.4061 17.4418ZM32.4374 40.1875L33.7812 41.566H31.1249L32.4374 40.1875ZM32.4062 38.8716L22.6876 28.8773L31.9687 19.0084L41.6561 29.2533L32.4062 38.8716ZM33.0311 39.5609L42.2811 29.9425L50.1561 38.2764L49.4687 41.566H34.9999L33.0311 39.5609ZM46.2811 3.84456C46.4061 3.90726 46.531 3.96995 46.6874 4.0013L53.4373 15.7814V15.8441C53.4373 16.1887 53.531 16.5019 53.6873 16.7526L42.3124 28.5953L32.625 18.3504L46.2811 3.84456ZM45.2187 3.59391L31.9687 17.6611L25.3124 10.6119L44.7185 3.59391H45.2187ZM30.8124 3.59391C31.1248 3.90714 31.5311 4.0951 31.9999 4.0951C32.4688 4.0951 32.8749 3.90714 33.1875 3.59391H41.9374L24.625 9.85988L18.6875 3.59391H30.8124ZM17.2501 4.25184L17.3751 4.0013C17.4805 3.97428 17.5848 3.94291 17.6876 3.90726L23.6563 10.2047L17.2501 12.5231V4.25184ZM17.2501 13.5256L24.3437 10.9565L31.3124 18.3504L22.0313 28.1881L17.2501 23.2693V13.5256ZM17.2501 24.3657L21.5 28.7833L17.2501 33.2636V24.3657ZM17.2501 34.6421L22.1563 29.4414L31.8125 39.4983L29.8125 41.566H17.2501V34.6421ZM18.0626 53.5968C17.8751 53.4088 17.6563 53.2835 17.3751 53.1895L17.2501 53.0015V42.506H28.9062L18.2188 53.5968H18.0626ZM33.2187 53.5968C32.9062 53.3149 32.4688 53.0956 31.9999 53.0956C31.5311 53.0956 31.0938 53.3149 30.7811 53.5968H19.5312L30.2186 42.506H34.6873L45.3748 53.5968H33.2187ZM47.2187 52.2182L46.7186 53.0955C46.5624 53.1268 46.4375 53.1894 46.3124 53.2521L35.9063 42.5058H49.25L47.2187 52.2182ZM48.7185 49.6178L50.2186 42.506H52.7811L48.7185 49.6178ZM52.7811 41.566H50.4061L50.9373 39.091L52.9373 41.2214C52.8749 41.3154 52.8123 41.4406 52.7811 41.566ZM60.4998 29.0026L54.031 40.3128C53.8748 40.3754 53.7185 40.4381 53.5623 40.532L51.156 37.963L55.1873 18.789L60.5309 28.0628C60.4998 28.2194 60.4373 28.376 60.4373 28.564C60.4373 28.7206 60.4685 28.846 60.4998 29.0026Z" fill="#17BEBB"/>
</svg>
