<svg width="71" height="57" viewBox="0 0 71 57" fill="none" xmlns="http://www.w3.org/2000/svg">
<path d="M19.0369 22.6163C18.422 22.2528 17.8055 22.0711 17.1906 22.0711H14.4266V35.1634H17.1921C17.8071 35.1634 18.4235 34.9817 19.0385 34.6183C19.6534 34.2548 19.9608 33.7097 19.9608 32.9816V24.253C19.9592 23.5261 19.6502 22.9797 19.0369 22.6163ZM64.0426 0.523438H6.95737C3.1221 0.523438 0.00950893 2.97848 0 6.0125V51.1782C0.00950893 54.2122 3.1221 56.6672 6.95737 56.6672H64.0426C67.8795 56.6672 70.9905 54.2122 71 51.1782V6.0125C70.9905 2.97848 67.8779 0.523438 64.0426 0.523438ZM24.4379 33.0054C24.4379 35.3627 22.598 38.9343 16.7738 38.9268H9.42018V18.1912H16.9291C22.5457 18.1912 24.4348 21.7578 24.4364 24.1164L24.4379 33.0054ZM40.3939 21.8944H31.95V26.7093H37.1118V30.415H31.95V35.2286H40.3955V38.9343H30.5411C28.7724 38.9707 27.3017 37.8653 27.2573 36.4667V20.7878C27.2146 19.3905 28.6139 18.23 30.381 18.1949H40.3955L40.3939 21.8944ZM56.819 36.3427C54.7271 40.1963 50.979 39.4293 49.3006 36.3427L43.1943 18.1962H48.3561L53.0646 32.4477L57.7509 18.1962H62.9142L56.819 36.3427Z" fill="#17BEBB"/>
</svg>
