<svg width="56" height="57" viewBox="0 0 56 57" fill="none" xmlns="http://www.w3.org/2000/svg">
<path d="M54.9373 18.0359L29.3436 0.92951C28.47 0.39055 27.5377 0.385615 26.6562 0.92951L1.06247 18.0359C0.406218 18.4744 0 19.2578 0 20.0409V37.1472C0 37.9305 0.406218 38.7138 1.06258 39.1524L26.6563 56.2612C27.5299 56.8001 28.4622 56.8051 29.3437 56.2612L54.9374 39.1524C55.5937 38.7139 56 37.9305 56 37.1472V20.0409C55.9999 19.2578 55.5937 18.4744 54.9373 18.0359ZM30.4062 7.44605L49.2499 20.0409L40.8437 25.6805L30.4062 18.6937V7.44605ZM25.5937 7.44605V18.6937L15.1562 25.6805L6.74996 20.0409L25.5937 7.44605ZM4.81249 24.5525L10.8437 28.5941L4.81249 32.6357V24.5525ZM25.5937 49.7422L6.74996 37.1473L15.1562 31.5078L25.5937 38.4946V49.7422ZM27.9999 34.2963L19.4999 28.5941L27.9999 22.892L36.5 28.5941L27.9999 34.2963ZM30.4062 49.7422V38.4946L40.8437 31.5078L49.2499 37.1473L30.4062 49.7422ZM51.1874 32.6357L45.1561 28.5941L51.1874 24.5525V32.6357Z" fill="#17BEBB"/>
</svg>
